<svg xmlns="http://www.w3.org/2000/svg" width="100" height="100"><radialGradient id="a" cx="30.199" cy="-2058.37" r="33.439" gradientTransform="matrix(1.203 0 0 -.149 15.624 -187.368)" gradientUnits="userSpaceOnUse"><stop offset="0" stop-color="#010101" stop-opacity=".2"/><stop offset="1" stop-color="#010101" stop-opacity="0"/></radialGradient><ellipse cx="51.96" cy="118.917" fill="url(#a)" rx="41.609" ry="5.476"/><radialGradient id="b" cx="-164.22" cy="-1609.91" r="14.301" gradientTransform="matrix(1 0 0 -.181 202.5 -173.093)" gradientUnits="userSpaceOnUse"><stop offset="0" stop-color="#010101" stop-opacity=".4"/><stop offset="1" stop-color="#010101" stop-opacity="0"/></radialGradient><ellipse cx="38.28" cy="119.106" fill="url(#b)" opacity=".34" enable-background="new" rx="12.823" ry="2.424"/><radialGradient id="c" cx="-135.204" cy="-1609.91" r="14.301" gradientTransform="matrix(1 0 0 -.181 202.5 -173.093)" gradientUnits="userSpaceOnUse"><stop offset="0" stop-color="#010101" stop-opacity=".4"/><stop offset="1" stop-color="#010101" stop-opacity="0"/></radialGradient><ellipse cx="67.296" cy="119.106" fill="url(#c)" opacity=".34" enable-background="new" rx="12.823" ry="2.424"/><linearGradient id="d" x1="562.009" x2="562.009" y1="1642.554" y2="1642.554" gradientUnits="userSpaceOnUse" gradientTransform="matrix(-.038 -.999 -.999 .038 1748.279 553.555)"><stop offset="0" stop-color="#A4A0BD"/><stop offset="1" stop-color="#202026"/></linearGradient><path fill="url(#d)" d="M85.4 54.69"/><linearGradient id="e" x1="451.411" x2="454.531" y1="1662.584" y2="1660.978" gradientUnits="userSpaceOnUse" gradientTransform="matrix(.065 -.998 -.998 -.065 1710.438 614.445)"><stop offset="0" stop-color="#D9B78B"/><stop offset=".178" stop-color="#E4C79C"/><stop offset=".412" stop-color="#EED7AC"/><stop offset=".67" stop-color="#F5E0B6"/><stop offset="1" stop-color="#F7E3B9"/></linearGradient><path fill="url(#e)" d="M77.37 63.15c-1.5.24-3.07-.67-3.48-2.03l-.58-1.86c-.4-1.37.48-2.67 2-2.92l6.03-1.1c1.5-.23 3.56.57 3.97 1.94l.05 1.2c-.2 1.78-2.67 3.58-4.18 3.83l-3.83.95z"/><linearGradient id="f" x1="-118.542" x2="-131.525" y1="121.065" y2="118.728" gradientUnits="userSpaceOnUse" gradientTransform="matrix(1 0 0 -1 202.5 180)"><stop offset="0" stop-color="#010101" stop-opacity="0"/><stop offset="1" stop-color="#010101" stop-opacity=".4"/></linearGradient><path fill="url(#f)" d="M79.98 56.62l-6.04 1.1c-.2.03-.4.08-.6.16-.14.42-.16.9 0 1.38l.55 1.86c.4 1.36 1.96 2.27 3.47 2.03l3.82-.94c.64-.1 1.47-.5 2.2-1.04.33-.45.54-.93.6-1.4l-.05-1.2c-.4-1.38-2.46-2.18-3.97-1.94z"/><linearGradient id="g" x1="-123.477" x2="-124.694" y1="121.286" y2="122.307" gradientUnits="userSpaceOnUse" gradientTransform="matrix(1 0 0 -1 202.5 180)"><stop offset="0" stop-color="#010101" stop-opacity="0"/><stop offset="1" stop-color="#010101" stop-opacity=".4"/></linearGradient><path fill="url(#g)" d="M81.87 55.2c-.18 0-.35.03-.52.05l-6.04 1.1c-1.5.24-2.4 1.54-1.97 2.9l.23.77c.72.56 1.7-.23 2.83-.7 1-.45 2.2-1.07 2.42-1.9l1.7-.24c.62-.37 1.36-1.17 1.35-1.97z"/><linearGradient id="h" x1="-125.99" x2="-126.655" y1="123.906" y2="127.218" gradientUnits="userSpaceOnUse" gradientTransform="matrix(1 0 0 -1 202.5 180)"><stop offset="0" stop-color="#D9B78B"/><stop offset=".178" stop-color="#E4C79C"/><stop offset=".412" stop-color="#EED7AC"/><stop offset=".67" stop-color="#F5E0B6"/><stop offset="1" stop-color="#F7E3B9"/></linearGradient><path fill="url(#h)" d="M76.5 59.43c.9-.64 1.43-1.58 1.45-2.43l1.9-1.22c.62-.6 1-2 .52-2.76-.5-.76-.78-1-1.33-.64 0 0-2.95 1.33-5.5 3.57-.2.18-1.9 1.48-.78 3.37.64 1.08 2.4 1.07 3.75.1z"/><linearGradient id="i" x1="450.587" x2="450.384" y1="1662.316" y2="1659.666" gradientUnits="userSpaceOnUse" gradientTransform="matrix(.065 -.998 -.998 -.065 1710.438 614.445)"><stop offset="0" stop-color="#010101" stop-opacity="0"/><stop offset="1" stop-color="#010101" stop-opacity=".4"/></linearGradient><path fill="url(#i)" d="M80.07 58.92c3.62-1.23 4.02-2.5 3.86-3.22-.12-.06-.25-.12-.38-.17.32 1.7-3.48 3.4-3.48 3.4z" opacity=".58" enable-background="new"/><linearGradient id="j" x1="449.612" x2="449.447" y1="1660.176" y2="1658.024" gradientUnits="userSpaceOnUse" gradientTransform="matrix(.065 -.998 -.998 -.065 1710.438 614.445)"><stop offset="0" stop-color="#010101" stop-opacity="0"/><stop offset="1" stop-color="#010101" stop-opacity=".4"/></linearGradient><path fill="url(#j)" d="M85.18 56.85c-.53 1.44-3 2.93-3 2.93 1.8-.86 2.7-1.63 3.16-2.26l-.02-.34c-.03-.1-.08-.23-.14-.33z" opacity=".58" enable-background="new"/><linearGradient id="k" x1="-132.249" x2="-133.638" y1="127.127" y2="121.897" gradientUnits="userSpaceOnUse" gradientTransform="matrix(1 0 0 -1 202.5 180)"><stop offset="0" stop-color="#A4A0BD"/><stop offset="1" stop-color="#202026"/></linearGradient><path fill="url(#k)" d="M77.04 59c-2.06 1.3-3.9 0-3.65-1.15.6-2.85 2-3.32 2-3.32s-4.77.45-5.98.65c-4.56.73-8.42 1.7-8.42 1.7s-11 13.15 3.77 10.47c2-.36 3.7-.84 5.16-1.4 3.26-1.14 7.82-2.9 7.82-2.9-2.73-.9.25-2.27-.7-4.04z"/><linearGradient id="l" x1="-126.022" x2="-125.971" y1="125.224" y2="114.49" gradientUnits="userSpaceOnUse" gradientTransform="matrix(1 0 0 -1 202.5 180)"><stop offset="0" stop-color="#010101" stop-opacity="0"/><stop offset="1" stop-color="#010101" stop-opacity=".4"/></linearGradient><path fill="url(#l)" d="M80.37 53.02c-.02-.03-.04-.06-.06-.1.05.75-.27 1.6-.73 2.04l-1.9 1.22c0 .85-.8 1.47-1.7 2.12-1.2.85-2.78.36-3.57-.5-.06.44.02.95.36 1.52.64 1.08 2.4 1.07 3.75.1.9-.63 1.43-1.57 1.45-2.42l1.9-1.22c.62-.6 1-2 .52-2.76z"/><linearGradient id="m" x1="-132.251" x2="-130.393" y1="123.814" y2="122.436" gradientUnits="userSpaceOnUse" gradientTransform="matrix(1 0 0 -1 202.5 180)"><stop offset="0" stop-color="#fff" stop-opacity=".4"/><stop offset="1" stop-color="#fff" stop-opacity="0"/></linearGradient><path fill="url(#m)" d="M74.22 55.2s-5.4-.07-2.75 5.57c0 0 .57 1.18 2.08 1.2 1.5.05-2.34-4.28.67-6.78z"/><linearGradient id="n" x1="570.893" x2="574.014" y1="-177.416" y2="-179.023" gradientUnits="userSpaceOnUse" gradientTransform="matrix(-.065 -.998 .998 -.065 238.791 614.445)"><stop offset="0" stop-color="#D9B78B"/><stop offset=".178" stop-color="#E4C79C"/><stop offset=".412" stop-color="#EED7AC"/><stop offset=".67" stop-color="#F5E0B6"/><stop offset="1" stop-color="#F7E3B9"/></linearGradient><path fill="url(#n)" d="M27.98 63.15c1.5.24 3.07-.67 3.48-2.03l.56-1.86c.42-1.37-.47-2.67-1.98-2.92L24 55.24c-1.5-.23-3.56.57-3.97 1.94l-.05 1.2c.2 1.78 2.67 3.58 4.18 3.83l3.82.95z"/><linearGradient id="o" x1="1725.335" x2="1712.352" y1="121.065" y2="118.728" gradientUnits="userSpaceOnUse" gradientTransform="matrix(-1 0 0 -1 1746.728 180)"><stop offset="0" stop-color="#010101" stop-opacity="0"/><stop offset="1" stop-color="#010101" stop-opacity=".4"/></linearGradient><path fill="url(#o)" d="M25.37 56.62l6.04 1.1c.22.03.42.08.6.16.15.42.17.9.03 1.38l-.57 1.86c-.4 1.36-1.97 2.27-3.48 2.03l-3.82-.94c-.65-.1-1.47-.5-2.22-1.04-.3-.45-.53-.93-.6-1.4l.06-1.2c.4-1.38 2.46-2.18 3.97-1.94z"/><linearGradient id="p" x1="1720.401" x2="1719.183" y1="121.286" y2="122.307" gradientUnits="userSpaceOnUse" gradientTransform="matrix(-1 0 0 -1 1746.728 180)"><stop offset="0" stop-color="#010101" stop-opacity="0"/><stop offset="1" stop-color="#010101" stop-opacity=".4"/></linearGradient><path fill="url(#p)" d="M23.48 55.2c.18 0 .35.03.52.05l6.04 1.1c1.5.24 2.4 1.54 2 2.9l-.24.77c-.73.56-1.7-.23-2.83-.7-1.02-.45-2.23-1.07-2.44-1.9l-1.7-.24c-.62-.37-1.36-1.17-1.35-1.97z"/><linearGradient id="q" x1="1717.888" x2="1717.223" y1="123.906" y2="127.218" gradientUnits="userSpaceOnUse" gradientTransform="matrix(-1 0 0 -1 1746.728 180)"><stop offset="0" stop-color="#D9B78B"/><stop offset=".178" stop-color="#E4C79C"/><stop offset=".412" stop-color="#EED7AC"/><stop offset=".67" stop-color="#F5E0B6"/><stop offset="1" stop-color="#F7E3B9"/></linearGradient><path fill="url(#q)" d="M28.84 59.43c-.9-.64-1.42-1.58-1.44-2.43l-1.9-1.22c-.62-.6-1-2-.52-2.76.5-.76.78-1 1.33-.64 0 0 2.96 1.33 5.52 3.57.2.18 1.9 1.48.77 3.37-.65 1.08-2.42 1.07-3.76.1z"/><linearGradient id="r" x1="570.07" x2="569.867" y1="-177.684" y2="-180.334" gradientUnits="userSpaceOnUse" gradientTransform="matrix(-.065 -.998 .998 -.065 238.791 614.445)"><stop offset="0" stop-color="#010101" stop-opacity="0"/><stop offset="1" stop-color="#010101" stop-opacity=".4"/></linearGradient><path fill="url(#r)" d="M25.28 58.92c-3.6-1.23-4-2.5-3.86-3.22.12-.06.25-.12.38-.17-.32 1.7 3.48 3.4 3.48 3.4z" opacity=".58" enable-background="new"/><linearGradient id="s" x1="569.095" x2="568.93" y1="-179.824" y2="-181.976" gradientUnits="userSpaceOnUse" gradientTransform="matrix(-.065 -.998 .998 -.065 238.791 614.445)"><stop offset="0" stop-color="#010101" stop-opacity="0"/><stop offset="1" stop-color="#010101" stop-opacity=".4"/></linearGradient><path fill="url(#s)" d="M20.17 56.85c.53 1.44 3 2.93 3 2.93-1.8-.86-2.7-1.63-3.15-2.26v-.34c.04-.1.1-.23.15-.33z" opacity=".58" enable-background="new"/><linearGradient id="t" x1="1711.628" x2="1710.24" y1="127.127" y2="121.897" gradientUnits="userSpaceOnUse" gradientTransform="matrix(-1 0 0 -1 1746.728 180)"><stop offset="0" stop-color="#A4A0BD"/><stop offset="1" stop-color="#202026"/></linearGradient><path fill="url(#t)" d="M28.3 59c2.07 1.3 3.92 0 3.66-1.15-.6-2.85-2.02-3.32-2.02-3.32s4.8.45 6 .65c4.55.73 8.4 1.7 8.4 1.7s11.02 13.15-3.76 10.47c-2-.36-3.7-.84-5.15-1.4-3.27-1.14-7.83-2.9-7.83-2.9 2.73-.9-.24-2.27.7-4.04z"/><linearGradient id="u" x1="1717.856" x2="1717.908" y1="125.224" y2="114.49" gradientUnits="userSpaceOnUse" gradientTransform="matrix(-1 0 0 -1 1746.728 180)"><stop offset="0" stop-color="#010101" stop-opacity="0"/><stop offset="1" stop-color="#010101" stop-opacity=".4"/></linearGradient><path fill="url(#u)" d="M24.98 53.02c.02-.03.04-.06.06-.1-.04.75.28 1.6.74 2.04l1.9 1.22c0 .85.8 1.47 1.7 2.12 1.2.85 2.78.36 3.58-.5.05.44-.03.95-.37 1.52-.65 1.08-2.42 1.07-3.76.1-.9-.63-1.42-1.57-1.44-2.42l-1.9-1.22c-.62-.6-1-2-.52-2.76z"/><linearGradient id="v" x1="-170.33" x2="-167.911" y1="120.968" y2="120.555" gradientUnits="userSpaceOnUse" gradientTransform="matrix(1 0 0 -1 202.5 180)"><stop offset="0" stop-color="#010101" stop-opacity="0"/><stop offset="1" stop-color="#010101" stop-opacity=".4"/></linearGradient><path fill="url(#v)" d="M31.13 55.2s5.98-.08 3.04 6.15c0 0-.63 1.3-2.3 1.34-1.66.03 2.6-4.75-.74-7.5z"/><linearGradient id="w" x1="-133.785" x2="-135.195" y1="104.586" y2="104.743" gradientUnits="userSpaceOnUse" gradientTransform="matrix(1 0 0 -1 202.5 180)"><stop offset="0" stop-color="#A4A0BD"/><stop offset="1" stop-color="#202026"/></linearGradient><ellipse cx="66.762" cy="75.197" fill="url(#w)" rx="1.02" ry=".458"/><linearGradient id="x" x1="-154.093" x2="-154.093" y1="104.723" y2="104.723" gradientUnits="userSpaceOnUse" gradientTransform="matrix(1 0 0 -1 202.5 180)"><stop offset="0" stop-color="#fff" stop-opacity=".35"/><stop offset=".09" stop-color="#fff" stop-opacity=".319"/><stop offset="1" stop-color="#fff" stop-opacity="0"/></linearGradient><path fill="url(#x)" d="M48.4 75.28"/><linearGradient id="y" x1="-165.257" x2="-172.222" y1="865.532" y2="858.3" gradientUnits="userSpaceOnUse" gradientTransform="matrix(.786 -.619 -.619 -.786 728.882 653.128)"><stop offset="0" stop-color="#A4A0BD"/><stop offset="1" stop-color="#202026"/></linearGradient><path fill="url(#y)" d="M59.53 74.7L50.6 88.56s9.13 4.77 11.55 5.76c2.4.98 8.93-3.17 10.97-6.34 2.05-3.18 1.84-4.82-3.66-5.22 0 0-9.93-8.1-9.93-8.1z"/><linearGradient id="z" x1="-163.208" x2="-164.618" y1="104.586" y2="104.743" gradientUnits="userSpaceOnUse" gradientTransform="matrix(1 0 0 -1 202.5 180)"><stop offset="0" stop-color="#A4A0BD"/><stop offset="1" stop-color="#202026"/></linearGradient><ellipse cx="37.34" cy="75.197" fill="url(#z)" rx="1.02" ry=".458"/><linearGradient id="A" x1="393.423" x2="401.567" y1="-504.616" y2="-508.106" gradientUnits="userSpaceOnUse" gradientTransform="matrix(.738 .674 .674 -.738 86.62 -560.997)"><stop offset="0" stop-color="#A4A0BD"/><stop offset="1" stop-color="#202026"/></linearGradient><path fill="url(#A)" d="M45.32 75.46l7.88 14.5s-9.45 4.1-11.93 4.9c-2.47.8-7.86-2.97-9.67-6.28-1.8-3.3-.04-4.56 3.22-5.78 0 0 10.5-7.34 10.5-7.34z"/><linearGradient id="B" x1="-187.684" x2="-150.94" y1="120.766" y2="113.407" gradientUnits="userSpaceOnUse" gradientTransform="matrix(1 0 0 -1 202.5 180)"><stop offset="0" stop-color="#A4A0BD"/><stop offset="1" stop-color="#202026"/></linearGradient><ellipse cx="52.043" cy="66.69" fill="url(#B)" rx="16.341" ry="25.097"/><linearGradient id="C" x1="-176.788" x2="-143.064" y1="101.308" y2="101.706" gradientUnits="userSpaceOnUse" gradientTransform="matrix(1 0 0 -1 202.5 180)"><stop offset="0" stop-color="#010101" stop-opacity="0"/><stop offset="1" stop-color="#010101" stop-opacity=".4"/></linearGradient><path fill="url(#C)" d="M36.9 76.12c.28 1.08.62 2.13 1 3.13 2.1.9 7.66 1.57 14.2 1.57 6.4 0 11.87-.62 14.06-1.5.4-1.03.74-2.1 1.04-3.23-2.03.95-8.06 1.64-15.2 1.64-7.04 0-13-.68-15.1-1.62z"/><linearGradient id="D" x1="-172.139" x2="-142.311" y1="103.601" y2="102.227" gradientUnits="userSpaceOnUse" gradientTransform="matrix(1 0 0 -1 202.5 180)"><stop offset="0" stop-color="#A4A0BD"/><stop offset="1" stop-color="#202026"/></linearGradient><path fill="url(#D)" d="M52 77.2c-7.87 0-14.4-.86-15.68-1.97 0 .04.02.08.03.12-.04.08-.13.4.25.92 0 .03 0 .05.02.08-.02.23-.13 1.46.58 1.93 0 .02.03.04.03.04 1.26 1.1 7.43 1.95 14.87 1.95 7.2 0 13.24-.78 14.74-1.84.13-.1.63-.62.52-1.34.16-.22.28-.38.35-.72.1-.4.18-.8.08-1.23-1.04 1.16-7.7 2.04-15.77 2.04z"/><linearGradient id="E" x1="-165.34" x2="-158.453" y1="102.566" y2="102.249" gradientUnits="userSpaceOnUse" gradientTransform="matrix(1 0 0 -1 202.5 180)"><stop offset=".025" stop-color="#fff" stop-opacity="0"/><stop offset=".442" stop-color="#fff" stop-opacity=".27"/><stop offset="1" stop-color="#fff" stop-opacity="0"/></linearGradient><path fill="url(#E)" d="M44.22 76.9c-4.1-.35-7.08-.96-7.9-1.67.26 1.07.55 1.93.9 3.02v.07c.8.68 3.46 1.27 7.15 1.6l-.15-3.03z" opacity=".81" enable-background="new"/><linearGradient id="F" x1="-152.662" x2="-147.663" y1="120.411" y2="109.325" gradientUnits="userSpaceOnUse" gradientTransform="matrix(1 0 0 -1 202.5 180)"><stop offset="0" stop-color="#010101" stop-opacity="0"/><stop offset="1" stop-color="#010101" stop-opacity=".4"/></linearGradient><path fill="url(#F)" d="M46 61.05c.16-.2.4-.33.7-.35.58-.05.9.23 1 .8.35 2.37.73 4.38 1.13 6.03l2.5-4.73c.2-.42.5-.65.84-.67.5-.04.8.28.93.95.3 1.5.64 2.8 1.08 3.87.3-2.88.8-4.95 1.5-6.24.16-.3.4-.47.74-.5.26 0 .5.07.7.24.22.16.34.38.36.65 0 .18-.02.37-.1.53-.46.82-.82 2.18-1.1 4.1-.3 1.83-.4 3.27-.32 4.3.02.3-.02.55-.13.75-.14.26-.34.4-.6.4-.3.03-.6-.1-.9-.4-1.05-1.1-1.9-2.7-2.5-4.83-.74 1.45-1.28 2.54-1.64 3.26-.68 1.3-1.25 1.95-1.72 1.98-.3.03-.58-.23-.8-.77-.57-1.47-1.2-4.34-1.86-8.6-.05-.3 0-.54.17-.75z"/><linearGradient id="G" x1="-169.529" x2="-136.653" y1="114.812" y2="114.812" gradientUnits="userSpaceOnUse" gradientTransform="matrix(1 0 0 -1 202.5 180)"><stop offset="0" stop-color="#A4A0BD"/><stop offset="1" stop-color="#202026"/></linearGradient><path fill="url(#G)" d="M45.48 60.53c.17-.2.4-.32.7-.35.58-.04.9.23 1 .82.36 2.36.74 4.37 1.14 6l2.48-4.7c.23-.44.5-.66.86-.7.5-.02.8.3.93.96.27 1.5.63 2.8 1.06 3.88.3-2.88.8-4.96 1.5-6.24.16-.3.4-.48.74-.5.27-.02.5.05.72.22.2.17.33.4.35.65 0 .2-.03.38-.12.54-.44.83-.8 2.2-1.1 4.1-.27 1.85-.38 3.3-.3 4.33.02.3-.03.53-.13.74-.14.25-.34.4-.6.4-.3.03-.6-.1-.9-.4-1.06-1.1-1.9-2.7-2.5-4.83-.74 1.45-1.3 2.54-1.65 3.26-.66 1.28-1.23 1.94-1.7 1.97-.32.02-.58-.24-.8-.78-.58-1.5-1.2-4.35-1.87-8.6-.04-.3.02-.55.18-.77z"/><linearGradient id="H" x1="-127.187" x2="-137.927" y1="117.086" y2="114.04" gradientUnits="userSpaceOnUse" gradientTransform="matrix(1 0 0 -1 202.5 180)"><stop offset="0" stop-color="#A4A0BD"/><stop offset="1" stop-color="#202026"/></linearGradient><path fill="url(#H)" d="M66.72 55.66c-.43-.23-.87-.34-1.3-.28-2.4.28-3.77 5.04-3.1 10.6.64 5.17 2.8 9.22 5.02 9.57.67-2.76 1.04-5.74 1.04-8.86 0-3.97-.6-7.7-1.66-11.04z"/><linearGradient id="I" x1="-177.806" x2="-142.789" y1="103.355" y2="103.768" gradientUnits="userSpaceOnUse" gradientTransform="matrix(1 0 0 -1 202.5 180)"><stop offset="0" stop-color="#fff" stop-opacity=".4"/><stop offset="1" stop-color="#fff" stop-opacity="0"/></linearGradient><path fill="url(#I)" d="M51 77.6c7.87 0 15.4-.98 16.7-2.1.02-.1.06-.23.08-.35-1.04 1.16-7.7 2.05-15.77 2.05-7.87 0-14.4-.86-15.68-1.97.03.12.13.2.25.3 1.46 1.08 6.7 2.08 14.42 2.08z"/><linearGradient id="J" x1="-135.64" x2="-144.45" y1="125.072" y2="125.345" gradientUnits="userSpaceOnUse" gradientTransform="matrix(1 0 0 -1 202.5 180)"><stop offset="0" stop-color="#010101" stop-opacity="0"/><stop offset="1" stop-color="#010101" stop-opacity=".4"/></linearGradient><path fill="url(#J)" d="M37.3 55.9c1.97.03 5.66.86 9.53 1.5 10.72 1.8 11.65 7.78 17.03 7.22 3.53-.36.8-4.43 3.54-6.5-1.33-5.63-3.93-10.32-7.28-13.25-7.12.73-16.67 4.4-22.33 9.54-.26.7-.3.78-.5 1.5z"/><linearGradient id="K" x1="-174.726" x2="-148.089" y1="101.905" y2="102.22" gradientUnits="userSpaceOnUse" gradientTransform="matrix(1 0 0 -1 202.5 180)"><stop offset="0" stop-color="#010101" stop-opacity="0"/><stop offset="1" stop-color="#010101" stop-opacity=".4"/></linearGradient><path fill="url(#K)" d="M36.6 76.2s7.58 3.9 23.97 2.54c0 0-16.62 3.12-23.96-2.53z"/><linearGradient id="L" x1="-159.679" x2="-139.462" y1="102.686" y2="102.925" gradientUnits="userSpaceOnUse" gradientTransform="matrix(1 0 0 -1 202.5 180)"><stop offset="0" stop-color="#010101" stop-opacity="0"/><stop offset="1" stop-color="#010101" stop-opacity=".4"/></linearGradient><path fill="url(#L)" d="M67.03 76.3c.38-.2.6-.55.66-.76-9.75 3.03-18.15 2.34-18.15 2.34 6.67 1.74 12.93.18 17.48-1.58z"/><linearGradient id="M" x1="-153.114" x2="-126.925" y1="79.342" y2="79.651" gradientUnits="userSpaceOnUse" gradientTransform="matrix(.999 .054 .054 -.999 176.62 165.224)"><stop offset="0" stop-color="#fff" stop-opacity=".4"/><stop offset="1" stop-color="#fff" stop-opacity="0"/></linearGradient><path fill="url(#M)" d="M36.77 76.6s6.55 4.67 23.46 2.25c0 0-15.1 4.08-23.45-2.24z"/><linearGradient id="N" x1="-111.999" x2="-91.904" y1="46.359" y2="46.596" gradientUnits="userSpaceOnUse" gradientTransform="matrix(.989 .148 .148 -.989 133.682 137.934)"><stop offset="0" stop-color="#fff" stop-opacity=".4"/><stop offset="1" stop-color="#fff" stop-opacity="0"/></linearGradient><path fill="url(#N)" d="M36.5 75.72s4.3 3.26 17.8 3.06c0 0-13.1-.66-17.8-3.06z"/><linearGradient id="O" x1="-122.187" x2="-144.429" y1="107.425" y2="100.743" gradientUnits="userSpaceOnUse" gradientTransform="matrix(1 0 0 -1 202.5 180)"><stop offset="0" stop-color="#fff" stop-opacity=".4"/><stop offset="1" stop-color="#fff" stop-opacity="0"/></linearGradient><path fill="url(#O)" d="M52.68 79.94c5.7.37 10.15-.95 14-2.6.34-.2.66-.44.75-.8-7.6 3.27-12.84 3.46-14.75 3.4z"/><linearGradient id="P" x1="-122.493" x2="-144.73" y1="108.422" y2="101.742" gradientUnits="userSpaceOnUse" gradientTransform="matrix(1 0 0 -1 202.5 180)"><stop offset="0" stop-color="#fff" stop-opacity=".4"/><stop offset="1" stop-color="#fff" stop-opacity="0"/></linearGradient><path fill="url(#P)" d="M52.68 79.94c-.27-.02-.54-.04-.8-.06 0 0 .27.04.8.06z"/><linearGradient id="Q" x1="-167.211" x2="-163.183" y1="101.772" y2="101.82" gradientUnits="userSpaceOnUse" gradientTransform="matrix(1 0 0 -1 202.5 180)"><stop offset="0" stop-color="#010101" stop-opacity="0"/><stop offset="1" stop-color="#010101" stop-opacity=".4"/></linearGradient><path fill="url(#Q)" d="M40.2 79.35c-1.9-.7-3.08-1.53-3.6-2.34.05.46.18 1 .6 1.28.02.02.03.04.03.04.45.4 1.5.75 3.03 1.05-.02 0-.03 0-.05-.02z"/><linearGradient id="R" x1="-171.015" x2="-164.705" y1="116.314" y2="115.05" gradientUnits="userSpaceOnUse" gradientTransform="matrix(1 0 0 -1 202.5 180)"><stop offset="0" stop-color="#fff" stop-opacity=".4"/><stop offset="1" stop-color="#fff" stop-opacity="0"/></linearGradient><path fill="url(#R)" d="M36.33 73.58c1.58-.07 4.4-3.38 4.73-8.13.34-4.86-2-9.38-3.64-9.5-.05 0-.1 0-.15 0-1 3.26-1.57 6.9-1.57 10.74 0 2.38.22 4.7.63 6.88z"/><linearGradient id="S" x1="-168.415" x2="-162.1" y1="98.148" y2="96.883" gradientUnits="userSpaceOnUse" gradientTransform="matrix(1 0 0 -1 202.5 180)"><stop offset="0" stop-color="#fff" stop-opacity=".4"/><stop offset="1" stop-color="#fff" stop-opacity="0"/></linearGradient><path fill="url(#S)" d="M37.98 79.48c1.07 2.77 2.48 5.2 4.13 7.14.88-.95.83-2.9-.2-4.65-1-1.76-2.7-2.3-3.92-2.5z"/><linearGradient id="T" x1="-168.195" x2="-167.272" y1="97.459" y2="92.32" gradientUnits="userSpaceOnUse" gradientTransform="matrix(1 0 0 -1 202.5 180)"><stop offset="0" stop-color="#A4A0BD"/><stop offset="1" stop-color="#202026"/></linearGradient><path fill="url(#T)" d="M40.2 94.95c.8-2.85-.16-6.6-2.73-9.7-.8-.96-1.7-1.8-2.63-2.46 0 0-.02 0-.02 0-3.26 1.22-6 1.4-3.22 5.78 1.78 2.78 5.9 6.13 8.6 6.37z"/><linearGradient id="U" x1="-136.579" x2="-133.813" y1="97.3" y2="91.108" gradientUnits="userSpaceOnUse" gradientTransform="matrix(1 0 0 -1 202.5 180)"><stop offset="0" stop-color="#A4A0BD"/><stop offset="1" stop-color="#202026"/></linearGradient><path fill="url(#U)" d="M66.5 85.62c-2.26 2.8-3.22 6.1-2.82 8.8 2.95-.5 7.74-3.8 9.44-6.43 2.03-3.15 1.84-4.78-3.5-5.2-1.12.73-2.18 1.67-3.1 2.82z"/><linearGradient id="V" x1="-6.23" x2="-4.207" y1="92.044" y2="86.16" gradientUnits="userSpaceOnUse" gradientTransform="matrix(.98 .257 .206 -.967 63.494 99.136)"><stop offset="0" stop-color="#A4A0BD"/><stop offset="1" stop-color="#202026"/></linearGradient><path fill="url(#V)" d="M87.7 24.53c-.24 1.13-4.78.9-10.12-.5-5.35-1.4-9.5-3.44-9.25-4.58.24-1.13 4.77-.9 10.12.5s9.5 3.45 9.25 4.58z"/><linearGradient id="W" x1=".93" x2="-52.72" y1="68.294" y2="60.63" gradientUnits="userSpaceOnUse" gradientTransform="matrix(.98 .257 .206 -.967 63.494 99.136)"><stop offset="0" stop-color="#D9B78B"/><stop offset=".049" stop-color="#DFC094"/><stop offset=".157" stop-color="#EAD0A4"/><stop offset=".29" stop-color="#F1DBB0"/><stop offset=".478" stop-color="#F6E1B7"/><stop offset="1" stop-color="#F7E3B9"/></linearGradient><path fill="url(#W)" d="M82.7 22.75C86.18 36.43 72.38 51.7 55 55.25S23.95 50 20.48 36.3C17 22.64 28.28 8.67 45.66 5.13 63.04 1.58 79.22 9.07 82.7 22.75z"/><linearGradient id="X" x1="-44.262" x2="-40.305" y1="53.764" y2="61.99" gradientUnits="userSpaceOnUse" gradientTransform="matrix(.98 .257 .206 -.967 63.494 99.136)"><stop offset="0" stop-color="#D9B78B"/><stop offset=".607" stop-color="#ECD4A9"/><stop offset="1" stop-color="#F7E3B9"/></linearGradient><path fill="url(#X)" d="M43.17 42.52c-2.73 2.94-9.38 1.18-14.87-3.93s-7.73-11.64-5-14.58 9.37-1.18 14.86 3.93c5.5 5.1 7.73 11.64 5 14.57z"/><linearGradient id="Y" x1="-27.739" x2="-25.199" y1="69.601" y2="63.62" gradientUnits="userSpaceOnUse" gradientTransform="matrix(.98 .257 .206 -.967 63.494 99.136)"><stop offset="0" stop-color="#D9B78B"/><stop offset="1" stop-color="#D9B78B" stop-opacity="0"/></linearGradient><path fill="url(#Y)" d="M59.44 35.77c-11.96.56-17.25 2.57-22.57 4.15-5.33 1.57-6.55-1-6.6-1.73-.05-.74-1.82-3.66-1.37-9.18s11.7-9.54 29.53-9.44c10.2.06 18.75 1.97 24.38 3.65-.02-.16-.06-.32-.1-.48C79.22 9.07 63.04 1.57 45.66 5.12 28.28 8.66 17 22.62 20.48 36.32S37.6 58.78 55 55.24C65.9 53.02 75.4 46.18 80.1 38c-5.9-1.3-13.95-2.54-20.66-2.23z"/><linearGradient id="Z" x1="3.183" x2="-8.562" y1="73.122" y2="71.049" gradientUnits="userSpaceOnUse" gradientTransform="matrix(.98 .257 .206 -.967 63.494 99.136)"><stop offset="0" stop-color="#C5A77E"/><stop offset=".245" stop-color="#CAAB81" stop-opacity=".763"/><stop offset="1" stop-color="#D9B78B" stop-opacity=".03"/></linearGradient><path fill="url(#Z)" d="M82.7 22.75c-.4-1.63-1-3.18-1.77-4.63-.94-1.27-2.1-2.1-3.43-2.35-4.08-.73-8.15 4.5-9.07 11.7-.93 7.17 1.63 13.6 5.7 14.33 1.6.28 3.2-.34 4.6-1.64 3.78-5.4 5.46-11.55 3.97-17.4z"/><path fill="#010101" d="M82.7 22.75c-2.14-8.43-9.1-14.5-18.2-17.1-.15-.04-.3-.08-.48-.12 8.94 2.65 15.76 8.68 17.88 17 3.47 13.7-10.32 28.96-27.7 32.5-5.26 1.08-10.17 1.02-14.56.04.15.05.3.1.45.13 4.48 1.05 9.5 1.14 14.9.05 17.38-3.55 31.18-18.82 27.7-32.5z" opacity=".1" enable-background="new"/><linearGradient id="aa" x1="-164.148" x2="-163.623" y1="157" y2="149.681" gradientUnits="userSpaceOnUse" gradientTransform="matrix(1 0 0 -1 202.5 180)"><stop offset="0" stop-color="#D9B78B"/><stop offset="1" stop-color="#D9B78B" stop-opacity="0"/></linearGradient><path fill="url(#aa)" d="M32.6 30.8c1.27-.98 2.9-1.78 4.75-2.28 2.7-.72 5.45-.7 7.74-.05-.86-3.14-3.44-5.52-6.42-5.62-3.54-.12-6.3 3.07-6.16 7.1 0 .3.03.57.07.85z"/><linearGradient id="ab" x1="258.82" x2="259.345" y1="-282.878" y2="-290.197" gradientUnits="userSpaceOnUse" gradientTransform="matrix(.895 .446 .446 -.895 -29.929 -345.113)"><stop offset="0" stop-color="#D9B78B"/><stop offset="1" stop-color="#D9B78B" stop-opacity="0"/></linearGradient><path fill="url(#ab)" d="M67.05 27.9c1.6-.3 3.4-.3 5.28.08 2.75.56 5.2 1.8 6.95 3.4.64-3.2-.6-6.48-3.23-7.9-3.12-1.67-7-.06-8.7 3.62-.1.26-.2.52-.3.8z"/><path fill="#010101" d="M33.48 31.15s2.2-4.2 5.58-4.56c3.37-.36 4.9 2.53 4.9 2.53l-1 .98s-1.9-2.32-3.75-2c-1.83.32-4.67 3.88-4.6 4.08l-1.12-1.03zM68.2 28.58s3.07-3.3 6.15-2.5c3.07.78 3.67 4.15 3.67 4.15l-1.2.54s-1.1-3-2.8-3.33C72.28 27.1 69 29.7 69 29.9l-.8-1.32z"/><linearGradient id="ac" x1="-37.168" x2="-22.872" y1="86.235" y2="61.475" gradientUnits="userSpaceOnUse" gradientTransform="matrix(.98 .257 .206 -.967 63.494 99.136)"><stop offset="0" stop-color="#A4A0BD"/><stop offset="1" stop-color="#202026"/></linearGradient><path fill="url(#ac)" d="M58.22 34.9c-11.97.55-17.26 2.56-22.58 4.14-4.24 1.25-6.26-1.1-6.6-1.73-.35-.65-1.82-3.64-1.37-9.16s11.7-9.54 29.53-9.44c15.25.1 26.85 4.3 30.45 5.75C84.7 10.05 68.07.65 48.85 2.33 28.98 4.05 14.6 17.77 16.7 32.98c2.1 15.2 21 26.5 40.84 24.8 13.77-1.2 22.14-9.35 27.86-18.9-4.5-1.53-17.33-4.45-27.2-4z"/><linearGradient id="ad" x1="-68.927" x2="-63.27" y1="60.808" y2="58.663" gradientUnits="userSpaceOnUse" gradientTransform="matrix(.98 .257 .206 -.967 63.494 99.136)"><stop offset="0" stop-color="#A4A0BD"/><stop offset="1" stop-color="#202026"/></linearGradient><path fill="url(#ad)" d="M26.02 27.43s-13.5-10.16-15.79-5.86-2.87 5.67-2.87 5.67-.7 2.1 2.93 4 11.5 3.42 11.5 3.42l4.22-7.23z"/><linearGradient id="ae" x1="-66.319" x2="-55.879" y1="62.971" y2="60.691" gradientUnits="userSpaceOnUse" gradientTransform="matrix(.98 .257 .206 -.967 63.494 99.136)"><stop offset="0" stop-color="#A4A0BD"/><stop offset="1" stop-color="#202026"/></linearGradient><path fill="url(#ae)" d="M10.53 21.16c-.33 1.06 2.1 3.03 5.46 4.45 3.4 1.44 6.47 1.75 6.86.7.2-.5-.3-1.14-1.25-1.87-3.9-2.45-9.27-5.2-11.08-3.27z"/><linearGradient id="af" x1="-66.292" x2="-61.699" y1="63.616" y2="61.63" gradientUnits="userSpaceOnUse" gradientTransform="matrix(.98 .257 .206 -.967 63.494 99.136)"><stop offset="0" stop-color="#fff" stop-opacity=".4"/><stop offset="1" stop-color="#fff" stop-opacity="0"/></linearGradient><path fill="url(#af)" d="M16.3 25.4c-3.36-1.4-5.78-3.38-5.45-4.43.08-.1.16-.16.26-.23-.2.1-.4.24-.58.42-.32 1.05 2.1 3.03 5.47 4.45 3.07 1.3 5.9 1.68 6.7.96-1.1.43-3.63 0-6.4-1.15z"/><linearGradient id="ag" x1="207.557" x2="204.686" y1="683.219" y2="680.905" gradientUnits="userSpaceOnUse" gradientTransform="matrix(.549 1.009 1.097 -.265 -841.418 -1.851)"><stop offset="0" stop-color="#A4A0BD"/><stop offset="1" stop-color="#202026"/></linearGradient><path fill="url(#ag)" d="M21.35 25.56c.2-.57-1.9-1.75-4.5-3.08-3.1-1.57-5.07-1.6-5.28-1.03-.22.57 1.8 1.94 4.5 3.08 2.7 1.13 5.07 1.6 5.28 1.03z"/><linearGradient id="ah" x1="28.264" x2="31.816" y1="21.471" y2="22.013" gradientUnits="userSpaceOnUse" gradientTransform="matrix(.935 .405 .357 -.914 -23.637 42.527)"><stop offset="0" stop-color="#A4A0BD"/><stop offset="1" stop-color="#202026"/></linearGradient><path fill="url(#ah)" d="M24.18 29.5S7.93 31.4 9.4 36.2c1.5 4.84 2.08 6.28 2.08 6.28s1 2.05 4.8.93 10.16-5.54 10.16-5.54l-2.26-8.37z"/><linearGradient id="ai" x1="26.004" x2="36.925" y1="19.792" y2="27.46" gradientUnits="userSpaceOnUse" gradientTransform="matrix(.935 .405 .357 -.914 -23.637 42.527)"><stop offset="0" stop-color="#A4A0BD"/><stop offset="1" stop-color="#202026"/></linearGradient><path fill="url(#ai)" d="M11.33 32.98c-.6.4-1.1.82-1.47 1.2-.48.62-.67 1.3-.44 2.03 0 .03 0 .05 0 .06 1 .66 3.8.25 6.8-1.06 3.4-1.48 5.73-3.55 5.22-4.62-.13-.26-.4-.44-.8-.54-2.92.54-6.93 1.5-9.3 2.94z"/><linearGradient id="aj" x1="26.386" x2="37.184" y1="19.273" y2="26.855" gradientUnits="userSpaceOnUse" gradientTransform="matrix(.935 .405 .357 -.914 -23.637 42.527)"><stop offset="0" stop-color="#fff" stop-opacity=".4"/><stop offset="1" stop-color="#fff" stop-opacity="0"/></linearGradient><path fill="url(#aj)" d="M16.32 34.95c-3 1.3-5.94 1.82-6.68 1.14-.24-.27-.25-.96-.13-1.35-.2.46-.25.94-.1 1.46.02.03.02.05.03.06.97.66 3.8.25 6.8-1.06 2.8-1.23 4.9-2.87 5.22-4-.53 1.12-2.5 2.6-5.13 3.75z"/><linearGradient id="ak" x1="32.702" x2="31.467" y1="26.633" y2="24.163" gradientUnits="userSpaceOnUse" gradientTransform="matrix(.935 .405 .357 -.914 -23.637 42.527)"><stop offset="0" stop-color="#fff" stop-opacity=".4"/><stop offset="1" stop-color="#fff" stop-opacity="0"/></linearGradient><path fill="url(#ak)" d="M17.7 31.97c-.3-.62-2.2-.4-4.27.5-2.07.9-3.5 2.14-3.2 2.76s2.2.4 4.26-.52c2.06-.9 3.5-2.12 3.2-2.73z"/><linearGradient id="al" x1="-13.887" x2="-17.76" y1="75.849" y2="72.647" gradientUnits="userSpaceOnUse" gradientTransform="matrix(.964 .465 .331 -.97 10.179 111.672)"><stop offset="0" stop-color="#A4A0BD"/><stop offset="1" stop-color="#202026"/></linearGradient><path fill="url(#al)" d="M17.6 32.22c-.3-.62-2.2-.4-4.27.5-2.07.92-3.5 2.15-3.2 2.76s2.2.4 4.27-.5c2.06-.92 3.5-2.15 3.2-2.76z"/><linearGradient id="am" x1="-37.166" x2="-22.881" y1="86.24" y2="61.499" gradientUnits="userSpaceOnUse" gradientTransform="matrix(.98 .257 .206 -.967 63.494 99.136)"><stop offset="0" stop-color="#A4A0BD"/><stop offset="1" stop-color="#202026"/></linearGradient><path fill="url(#am)" d="M58.22 34.9c-11.97.55-17.26 2.56-22.58 4.14-4.24 1.25-6.26-1.1-6.6-1.73-.35-.65-1.82-3.64-1.37-9.16s11.7-9.54 29.53-9.44c15.25.1 26.85 4.3 30.45 5.75C84.7 10.05 68.07.65 48.85 2.33 28.98 4.05 14.6 17.77 16.7 32.98c2.1 15.2 21.43 26.3 41.28 24.58 13.76-1.2 22.78-8.85 27.42-18.7-4.5-1.5-17.33-4.42-27.2-3.97z"/><linearGradient id="an" x1="-23.929" x2="-22.623" y1="80.549" y2="76.124" gradientUnits="userSpaceOnUse" gradientTransform="matrix(.98 .257 .206 -.967 63.494 99.136)"><stop offset="0" stop-color="#010101" stop-opacity="0"/><stop offset="1" stop-color="#010101" stop-opacity=".4"/></linearGradient><path fill="url(#an)" d="M57.16 17.58c-17.83-.1-29.08 3.9-29.53 9.43-.1 1.3-.1 2.44-.04 3.46-.02-.72 0-1.5.07-2.32.45-5.52 11.7-9.54 29.53-9.44 15.25.1 26.85 4.3 30.45 5.75-.1-.4-.18-.82-.3-1.22-3.84-1.53-15.27-5.57-30.2-5.65z"/><g fill="#fff" opacity=".16"><path d="M18.64 34.6C16.54 19.4 30.9 5.67 50.76 3.95c11.52-1 22.1 1.97 29.37 7.6-7.25-6.68-18.7-10.3-31.3-9.22C29 4.05 14.62 17.77 16.74 32.98c1 7.24 6.43 14.05 12.17 17.68-4.67-4.3-9.38-9.66-10.26-16.06zM58.22 34.9c-11.97.55-17.26 2.56-22.58 4.14-2.07.6-3.6.36-4.7-.13.02.02.02.02.02.03.34.62 2.36 2.98 6.6 1.73 5.32-1.58 10.6-3.6 22.58-4.15 8.43-.38 19.02 1.7 24.73 3.25.2-.3.37-.58.55-.88-4.5-1.52-17.33-4.43-27.2-3.98z"/></g><path fill="#fff" d="M30.37 15.8c19.35-13.37 41.52-5.53 52.8-1.6-.84-1.1-1.8-2.12-2.83-3.1-38.65-9.4-49.97 4.7-49.97 4.7z" opacity=".15" enable-background="new"/><linearGradient id="ao" x1="-70.265" x2="26.4" y1="72.267" y2="94.602" gradientUnits="userSpaceOnUse" gradientTransform="matrix(.98 .257 .206 -.967 63.494 99.136)"><stop offset="0" stop-color="#A4A0BD"/><stop offset="1" stop-color="#202026"/></linearGradient><path fill="url(#ao)" d="M30.25 16.32c19.36-13.36 41.53-5.52 52.82-1.6-.85-1.1-1.8-2.12-2.84-3.08-38.66-9.4-49.98 4.68-49.98 4.68z"/><linearGradient id="ap" x1="-69.849" x2="24.814" y1="72.363" y2="94.235" gradientUnits="userSpaceOnUse" gradientTransform="matrix(.98 .257 .206 -.967 63.494 99.136)"><stop offset="0" stop-color="#010101" stop-opacity="0"/><stop offset="1" stop-color="#010101" stop-opacity=".4"/></linearGradient><path fill="url(#ap)" d="M62.87 9.4c5.22.4 11.2 1.3 18.05 2.98.36.33.7.67 1.03 1-.54-.6-1.12-1.18-1.72-1.74-38.66-9.4-49.97 4.68-49.97 4.68 10.78-7.45 22.44-8.3 32.6-6.93z"/><linearGradient id="aq" x1="-71.233" x2="6.643" y1="67.013" y2="85.353" gradientUnits="userSpaceOnUse" gradientTransform="matrix(.98 .257 .206 -.967 63.494 99.136)"><stop offset="0" stop-color="#A4A0BD"/><stop offset="1" stop-color="#202026"/></linearGradient><path fill="url(#aq)" d="M35.6 18.48c21.33-6.28 39.32-2.5 51.2 2.98-.3-.86-.65-1.7-1.06-2.52-31.06-9.9-50.13-.46-50.13-.46z"/><path fill="#fff" d="M28.5 37.17c0-.04-.03-.08-.05-.12 0 0 0 0 0-.02-.04-.04-.06-.1-.1-.15 0 0 0-.02 0-.03-.03-.06-.06-.13-.1-.2 0 0-.03 0-.03 0-.46-1.06-1.22-3.33-1.22-6.9 0 0 0 0 0-.02 0-5.75 1.22-11.22 3.03-15.6 1.33-3.23 5.76-7.95 10.07-10.5-2.46.7-4.8 1.56-6.96 2.6-3.24 2.93-5.45 6.73-5.9 8.2-4.56 14.83 1.27 22.74 1.27 22.74z" opacity=".15" enable-background="new"/><linearGradient id="ar" x1="-47.263" x2="-46.572" y1="88.77" y2="61.838" gradientUnits="userSpaceOnUse" gradientTransform="matrix(.98 .257 .206 -.967 63.494 99.136)"><stop offset="0" stop-color="#A4A0BD"/><stop offset="1" stop-color="#202026"/></linearGradient><path fill="url(#ar)" d="M29.04 37.3c0-.02-.04-.06-.06-.1 0-.02 0-.02 0-.03-.03-.04-.06-.1-.1-.15 0 0 0-.02 0-.03-.03-.07-.06-.14-.1-.2 0 0-.3-.02-.3-.02-.45-1.05-1.48-3.32-1.48-6.9 0-5.76 1.5-11.23 3.3-15.6 1.33-3.24 5.9-7.96 10.2-10.5-2.46.68-4.72 1.55-6.9 2.6-3.23 2.92-5.4 6.73-5.86 8.2-4.55 14.83 1.3 22.73 1.3 22.73z"/><linearGradient id="as" x1="225.989" x2="269.325" y1="470.382" y2="465.688" gradientUnits="userSpaceOnUse" gradientTransform="matrix(.61 .824 .794 -.567 -495.358 91.746)"><stop offset="0" stop-color="#A4A0BD"/><stop offset="1" stop-color="#202026"/></linearGradient><path fill="url(#as)" d="M23.68 33.86S30 47.44 45.08 48.88c0 0-16.6 1.13-21.4-15.02z" opacity=".7" enable-background="new"/><linearGradient id="at" x1="228.596" x2="271.933" y1="468.377" y2="463.683" gradientUnits="userSpaceOnUse" gradientTransform="matrix(.61 .824 .794 -.567 -495.358 91.746)"><stop offset="0" stop-color="#010101" stop-opacity="0"/><stop offset="1" stop-color="#010101" stop-opacity=".4"/></linearGradient><path fill="url(#at)" d="M23.68 37.15s6.33 13.58 21.4 15c0 0-16.6 1.14-21.4-15z" opacity=".7" enable-background="new"/><linearGradient id="au" x1="-53.096" x2="-54.278" y1="78.358" y2="43.606" gradientUnits="userSpaceOnUse" gradientTransform="matrix(.98 .257 .206 -.967 63.494 99.136)"><stop offset="0" stop-color="#fff" stop-opacity=".4"/><stop offset="1" stop-color="#fff" stop-opacity="0"/></linearGradient><path fill="url(#au)" d="M26 15.77s-8.97 11.16-2.72 25.2c0 0-9.3-14.35 2.73-25.2z" opacity=".7" enable-background="new"/><linearGradient id="av" x1="-13.034" x2="-.066" y1="91.236" y2="85.833" gradientUnits="userSpaceOnUse" gradientTransform="matrix(.98 .257 .206 -.967 63.494 99.136)"><stop offset="0" stop-color="#010101" stop-opacity="0"/><stop offset="1" stop-color="#010101" stop-opacity=".4"/></linearGradient><path fill="url(#av)" d="M85.86 23.77c.72.27 1.32.5 1.8.68C85.12 12.13 72.58 3.48 56.97 2.28c14.6 1.64 26.22 9.88 28.88 21.5z"/><linearGradient id="aw" x1="-25.172" x2="-12.205" y1="62.101" y2="56.698" gradientUnits="userSpaceOnUse" gradientTransform="matrix(.98 .257 .206 -.967 63.494 99.136)"><stop offset="0" stop-color="#010101" stop-opacity="0"/><stop offset="1" stop-color="#010101" stop-opacity=".4"/></linearGradient><path fill="url(#aw)" d="M55.53 18.55c-17.82-.1-29.07 3.9-29.52 9.43-.44 5.52 1.02 8.5 1.38 9.17.27.5 1.7 2.2 4.52 2.1-1.73-.43-2.64-1.54-2.86-1.94-.35-.65-1.8-3.64-1.37-9.16s11.7-9.54 29.53-9.44c2.32.02 4.56.13 6.7.3-2.63-.27-5.43-.44-8.37-.45z"/><linearGradient id="ax" x1="-56.294" x2="-12.962" y1="23.191" y2="18.497" gradientUnits="userSpaceOnUse" gradientTransform="matrix(.973 .287 .236 -.958 73.459 69.854)"><stop offset="0" stop-color="#A4A0BD"/><stop offset="1" stop-color="#202026"/></linearGradient><path fill="url(#ax)" d="M44.3 45.15s13.84 4.58 25.43-1.22c0 0-10.14 12.73-25.42 1.22z" opacity=".78" enable-background="new"/></svg>